<?xml version="1.0" encoding="UTF-8"?>
<svg width="411px" height="342px" viewBox="0 0 411 342" version="1.1" xmlns="http://www.w3.org/2000/svg" xmlns:xlink="http://www.w3.org/1999/xlink">
    <!-- Generator: Sketch 45 (43475) - http://www.bohemiancoding.com/sketch -->
    <title>Fill 1</title>
    <desc>Created with Sketch.</desc>
    <defs></defs>
    <g id="Page-1" stroke="none" stroke-width="1" fill="none" fill-rule="evenodd">
        <path d="M403.632,40.516 C394.519,44.557 385.059,47.745 375.352,50.053 C386.048,39.889 394.09,27.176 398.627,12.986 C399.922,8.935 395.522,5.432 391.864,7.601 C378.36,15.611 363.814,21.62 348.629,25.463 C347.748,25.686 346.839,25.799 345.927,25.799 C343.161,25.799 340.472,24.772 338.357,22.908 C322.201,8.669 301.422,0.827 279.849,0.827 C270.514,0.827 261.089,2.282 251.835,5.152 C223.163,14.045 201.04,37.696 194.099,66.876 C191.495,77.821 190.79,88.776 192.002,99.436 C192.141,100.661 191.562,101.516 191.205,101.917 C190.578,102.62 189.689,103.023 188.766,103.023 C188.663,103.023 188.557,103.018 188.452,103.008 C125.69,97.177 69.094,66.94 29.089,17.868 C27.049,15.365 23.137,15.672 21.511,18.461 C13.677,31.901 9.537,47.273 9.537,62.915 C9.537,86.887 19.168,109.478 35.897,125.947 C28.862,124.279 22.053,121.652 15.728,118.139 C12.668,116.439 8.903,118.624 8.86,122.124 C8.422,157.736 29.272,189.424 60.506,203.693 C59.877,203.708 59.248,203.715 58.618,203.715 C53.667,203.715 48.654,203.237 43.72,202.294 C40.274,201.636 37.379,204.905 38.449,208.246 C48.587,239.897 75.839,263.227 108.451,268.524 C81.385,286.693 49.866,296.277 17.061,296.277 L6.834,296.271 C3.683,296.271 1.018,298.325 0.215,301.377 C-0.576,304.383 0.881,307.554 3.568,309.117 C40.534,330.63 82.699,342 125.523,342 C163.008,342 198.072,334.561 229.742,319.891 C258.775,306.442 284.431,287.217 305.997,262.75 C326.087,239.958 341.797,213.647 352.689,184.549 C363.072,156.812 368.56,127.216 368.56,98.96 L368.56,97.614 C368.559,93.077 370.611,88.808 374.191,85.902 C387.776,74.872 399.606,61.888 409.351,47.311 C411.924,43.462 407.866,38.638 403.632,40.516" id="Fill-1" fill="#FFFFFF"></path>
    </g>
</svg>